/* XPM */
static char *_10c1288094e4e80ca2a98ccfc46d3bab72dVlUhzyvuzXpw[] = {
/* columns rows colors chars-per-pixel */
"16 16 32 1 ",
"  c #593D29",
". c #79553A",
"X c #745844",
"o c #6C6C6C",
"O c #966C4A",
"+ c #509026",
"@ c #57972D",
"# c #5F9F35",
"$ c #60A036",
"% c #62A238",
"& c #64A43A",
"* c #66A63C",
"= c #68A83E",
"- c #6AAA40",
"; c #6DAD43",
": c #6FAF45",
"> c #70B046",
", c #73B349",
"< c #74B44A",
"1 c #76B64C",
"2 c #7EBE54",
"3 c #7FBF55",
"4 c #B9855C",
"5 c #81B051",
"6 c #8AB95A",
"7 c #8DBC5D",
"8 c #90BF60",
"9 c #92C162",
"0 c #93C263",
"q c #97C667",
"w c #9CCB6C",
"e c gray53",
/* pixels */
"<1,**>$;2<-*-$+:",
"<;655 =%$08,$;*-",
"7 w&- > <20q @$ ",
" o  >   # ; .  .",
"O.O4 O..   o.O .",
". OO.O   .. ...4",
"4...e..44.44.O.O",
"..44OO..O OO..OO",
"O..O.O. .OO... .",
".O ..  .....44.O",
".O.44.4O 44 OOe.",
"O..OO4.OoOO. O. ",
". O.OO4.......44",
".O..X.OO. 4 .4OO",
"O. 4. . 44.O..OO",
"O.4OO.e.OO..OO. "
};
